<svg fill="none" height="37" viewBox="0 0 248 37" width="248" xmlns="http://www.w3.org/2000/svg"><g fill="#000"><path clip-rule="evenodd" d="m14.9138.559082c2.1443 2.145988 4.9085 4.799238 7.4001 7.717358 3.3922-1.97912 5.6676-2.34662 6.893-1.11094 3.1533 3.1415-4.9711 12.9348-10.2646 18.2284-4.4764 4.4764-12.17584 10.9665-16.34146 10.9665-.75941-.0001-1.40368-.2071-1.886965-.7019-1.377459-1.3774-.7628808-4.0374 1.855655-8.1053-.93658-1.8643-1.46492-3.9698-1.46492-6.1987.00003-.6602.06993-1.3271.19877-1.9979.36078-2.411 1.34626-4.6196 2.7862-6.4553 3.09856-4.87638 7.89392-9.40976 10.82422-12.342218zm-10.97806 29.161518c-1.6912 2.8302-1.73764 4.0962-1.58813 4.3267.4489.2762 2.00275-.2419 4.31579-1.6229-1.04715-.7825-1.96817-1.6912-2.72766-2.7038zm23.63746-20.94451c-.2048-.11854-1.3181-.07607-3.7828 1.30901.6731.8662 1.3093 1.7498 1.8863 2.646.1008.1258.1998.2535.2968.3832 1.3807-2.3127 1.8873-3.87784 1.5997-4.33821z" fill-rule="evenodd"/><path d="m27.55 19.0067c.3108-.414.9663-.2644 1.0354.2532.1266.702.1845 1.416.1845 2.1525-.0002 5.8456-3.591 11.1042-9.1258 13.0147-2.2785.794-4.6381.9667-6.8358.6215-.5062-.0806-.6672-.7361-.2532-1.0354 3.4983-2.6122 6.6054-5.6048 7.9978-6.9971 1.3464-1.3349 4.3502-4.4536 6.9971-8.0094z"/><path d="m44.8589 35.4225c-.5938 0-1.0585-.1678-1.3942-.5034-.3098-.3357-.4647-.8004-.4647-1.3942v-24.0498c0-.61964.1678-1.08437.5035-1.39419.3356-.33563.7874-.50345 1.3554-.50345.5422 0 .9553.10327 1.2393.30981.3098.18073.5938.51637.852 1.00692l10.1466 18.93781h-1.2005l10.1079-18.93781c.2581-.49055.5292-.82619.8132-1.00692.284-.20654.6971-.30981 1.2393-.30981.568 0 1.0069.16782 1.3167.50345.3099.30982.4648.77455.4648 1.39419v24.0498c0 .5938-.1549 1.0585-.4648 1.3942-.284.3356-.7229.5034-1.3167.5034s-1.0456-.1678-1.3555-.5034c-.3098-.3357-.4647-.8004-.4647-1.3942v-19.9834h.852l-8.9848 16.6141c-.2065.3873-.426.6713-.6583.852-.2324.1807-.5551.2711-.9682.2711s-.7488-.0904-1.0069-.2711c-.2582-.2065-.4906-.4905-.6971-.852l-9.0623-16.6528h.9295v20.0221c0 .5938-.1549 1.0585-.4647 1.3942-.284.3356-.723.5034-1.3168.5034z"/><path d="m82.3211 35.1515c-.6971 0-1.2392-.1808-1.6265-.5422-.3615-.3873-.5422-.9295-.5422-1.6266v-22.9654c0-.69711.1807-1.22638.5422-1.58784.3873-.38727.9294-.58091 1.6265-.58091h14.1356c.5422 0 .9553.142 1.2393.426.284.25819.426.64546.426 1.16183 0 .54218-.142.95532-.426 1.23932s-.6971.426-1.2393.426h-12.4315v8.5587h11.5795c.568 0 .9811.142 1.2393.426.284.284.426.6842.426 1.2006 0 .5422-.142.9553-.426 1.2393-.2582.2582-.6713.3873-1.2393.3873h-11.5795v8.9847h12.4315c.5422 0 .9553.142 1.2393.426s.426.6842.426 1.2006c0 .5422-.142.9553-.426 1.2393-.284.2582-.6971.3873-1.2393.3873z"/><path d="m108.844 35.4225c-.645 0-1.149-.1807-1.51-.5421-.336-.3615-.503-.865-.503-1.5104v-23.46889c0-.67128.18-1.17474.542-1.51038.361-.36145.865-.54218 1.51-.54218h9.256c2.943 0 5.215.69709 6.816 2.09128 1.601 1.39417 2.401 3.36927 2.401 5.92527 0 1.6524-.361 3.0724-1.084 4.2601-.723 1.1876-1.782 2.0913-3.176 2.7109-1.368.6196-3.021.9295-4.957.9295l.349-.5422h1.006c1.033 0 1.924.2582 2.673.7745.774.5164 1.471 1.3426 2.091 2.4786l3.33 6.1964c.259.4647.375.9165.349 1.3555 0 .413-.155.7487-.465 1.0069-.284.2582-.697.3872-1.239.3872-.568 0-1.033-.1161-1.394-.3485-.336-.2582-.646-.6326-.93-1.1231l-4.066-7.5131c-.542-1.007-1.162-1.6782-1.859-2.0139-.697-.3614-1.614-.5422-2.75-.5422h-4.376v9.4883c0 .6454-.168 1.1489-.503 1.5104-.336.3614-.839.5421-1.511.5421zm2.014-14.5615h6.623c1.962 0 3.446-.4131 4.453-1.2393s1.511-2.0525 1.511-3.6791c0-1.6007-.504-2.8142-1.511-3.6404s-2.491-1.2393-4.453-1.2393h-6.623z"/><path d="m147.885 35.5c-2.762 0-5.124-.568-7.087-1.704-1.962-1.136-3.472-2.7497-4.531-4.841-1.033-2.1171-1.549-4.6085-1.549-7.4744 0-2.1429.297-4.0664.891-5.7704.594-1.7298 1.446-3.2014 2.556-4.4149 1.136-1.2393 2.517-2.18165 4.144-2.82711 1.652-.64546 3.511-.96819 5.576-.96819 1.524 0 2.982.20655 4.377.61964 1.42.41309 2.646 1.00692 3.679 1.78147.439.28399.723.63259.852 1.04569.155.3872.181.7616.077 1.123-.077.3615-.245.6713-.503.9295-.258.2324-.594.3615-1.007.3873-.387.0258-.813-.1162-1.278-.426-.852-.6455-1.795-1.1231-2.827-1.4329-1.033-.3099-2.117-.4648-3.253-.4648-1.963 0-3.615.4131-4.957 1.2393-1.343.8004-2.363 1.9751-3.06 3.5242s-1.046 3.4339-1.046 5.6542c0 2.2204.349 4.1181 1.046 5.693.697 1.5491 1.717 2.7367 3.06 3.5629 1.342.8004 2.994 1.2006 4.957 1.2006 1.136 0 2.22-.1549 3.253-.4648 1.058-.3356 2.052-.8261 2.982-1.4716.465-.284.878-.4131 1.239-.3873.387.0258.71.1549.968.3873s.426.5293.504.8907c.103.3357.09.6971-.039 1.0844-.103.3615-.349.6713-.736.9295-1.058.852-2.311 1.4974-3.756 1.9363-1.446.4389-2.957.6584-4.532.6584z"/><path d="m176.729 35.5c-1.833 0-3.447-.2324-4.841-.6971-1.394-.4905-2.569-1.2135-3.524-2.1687-.93-.9553-1.64-2.143-2.13-3.563-.491-1.42-.736-3.0594-.736-4.9184v-14.56151c0-.67128.168-1.17474.503-1.51038.362-.33563.865-.50345 1.511-.50345.645 0 1.136.16782 1.471.50345.362.33564.543.8391.543 1.51038v14.48411c0 2.6593.606 4.6473 1.82 5.964 1.239 1.3168 3.034 1.9751 5.383 1.9751 2.375 0 4.17-.6583 5.383-1.9751 1.214-1.3167 1.82-3.3047 1.82-5.964v-14.48411c0-.67128.168-1.17474.504-1.51038.361-.33563.852-.50345 1.471-.50345.646 0 1.136.16782 1.472.50345.336.33564.504.8391.504 1.51038v14.56151c0 2.4786-.426 4.5699-1.278 6.2739-.827 1.6782-2.066 2.9433-3.718 3.7953-1.653.852-3.705 1.278-6.158 1.278z"/><path d="m199.981 35.4225c-.646 0-1.149-.1807-1.51-.5421-.336-.3615-.504-.865-.504-1.5104v-23.46889c0-.67128.181-1.17474.542-1.51038.362-.36145.865-.54218 1.511-.54218h9.256c2.943 0 5.215.69709 6.816 2.09128 1.6 1.39417 2.401 3.36927 2.401 5.92527 0 1.6524-.362 3.0724-1.085 4.2601-.723 1.1876-1.781 2.0913-3.175 2.7109-1.369.6196-3.021.9295-4.957.9295l.348-.5422h1.007c1.033 0 1.923.2582 2.672.7745.775.5164 1.472 1.3426 2.092 2.4786l3.33 6.1964c.258.4647.374.9165.349 1.3555 0 .413-.155.7487-.465 1.0069-.284.2582-.697.3872-1.239.3872-.568 0-1.033-.1161-1.395-.3485-.335-.2582-.645-.6326-.929-1.1231l-4.066-7.5131c-.543-1.007-1.162-1.6782-1.859-2.0139-.697-.3614-1.614-.5422-2.75-.5422h-4.376v9.4883c0 .6454-.168 1.1489-.504 1.5104-.335.3614-.839.5421-1.51.5421zm2.014-14.5615h6.622c1.962 0 3.447-.4131 4.454-1.2393s1.51-2.0525 1.51-3.6791c0-1.6007-.503-2.8142-1.51-3.6404s-2.492-1.2393-4.454-1.2393h-6.622z"/><path d="m236.343 35.4225c-.645 0-1.149-.1807-1.51-.5421-.336-.3615-.504-.8779-.504-1.5491v-12.2767l.891 2.5561-9.566-13.2836c-.284-.38727-.413-.78745-.387-1.20054.026-.43892.194-.80037.503-1.08437.336-.30982.775-.46473 1.317-.46473.413 0 .788.10327 1.123.30981.362.20655.697.52928 1.007.96819l7.668 10.65004h-.929l7.668-10.65004c.335-.46473.658-.78746.968-.96819.31-.20654.697-.30981 1.162-.30981.542 0 .955.142 1.239.426.31.25818.465.60673.465 1.04564.026.41309-.129.85201-.465 1.3167l-9.488 13.2449.813-2.5561v12.2767c0 1.3941-.658 2.0912-1.975 2.0912z"/></g></svg>