<svg version="1.2" xmlns="http://www.w3.org/2000/svg" viewBox="345 345.000000000001 3150 559.999999999999" width="3150" height="560">
	<style>
		.s0 { fill: #00d9ff } 
		.s1 { fill: #2a2a2a } 
		.s2 { fill: #00ffb8 } 
	</style>
	<g id="Logo">
		<g id="&lt;Group&gt;">
			<path id="&lt;Compound Path&gt;" class="s0" d="m345 700.06l176.74-93.53v-4.76l-176.74-93.54v-82.21l255.89 137.02v82.22l-255.89 137.02z"/>
			<path id="&lt;Compound Path&gt;" class="s1" d="m997.22 729.85h-4.17c-15.47 36.94-41.65 63.15-91.05 63.15-67.84 0-115.44-49.45-115.44-160.85 0-111.41 47.6-160.85 115.44-160.85 49.4 0 75.58 26.21 91.05 63.15h4.17v-189.45h88.07v440.85h-88.07zm0-52.42v-90.56c0-32.17-26.19-47.06-57.13-47.06-39.28 0-61.89 25.62-61.89 68.51v47.66c0 42.89 22.61 68.51 61.89 68.51 30.94 0 57.13-14.89 57.13-47.06z"/>
			<path id="&lt;Compound Path&gt;" class="s1" d="m1139.14 633.34c0-100.68 57.13-162.04 149.37-162.04 91.64 0 148.17 60.17 148.17 156.08v26.22h-210.06v5.36c0 39.32 25.59 66.13 72.6 66.13 36.3 0 61.89-15.49 80.93-38.13l47.61 51.83c-23.81 29.19-65.46 54.21-131.52 54.21-102.95 0-157.1-61.36-157.1-159.66zm87.48-33.96v4.77h123.78v-4.77c0-39.91-23.21-64.93-61.3-64.93-38.08 0-62.48 25.61-62.48 64.93z"/>
			<path id="&lt;Compound Path&gt;" class="s1" d="m1489.52 478.45h88.07v56h4.17c15.47-36.94 41.66-63.15 91.05-63.15 67.84 0 115.45 49.44 115.45 160.85 0 111.4-47.61 160.85-115.45 160.85-49.39 0-75.58-26.21-91.05-63.15h-4.17v175.15h-88.07zm207.09 177.53v-47.66c0-42.89-22.61-68.51-61.89-68.51-30.94 0-57.13 14.9-57.13 47.07v90.55c0 32.17 26.19 47.06 57.13 47.06 39.28 0 61.89-25.61 61.89-68.51z"/>
			<path id="&lt;Compound Path&gt;" class="s1" d="m1827.88 717.34h94.03v-303.83h-94.03v-68.51h182.1v372.34h94.02v68.51h-276.12z"/>
			<path id="&lt;Compound Path&gt;" class="s1" d="m2141.55 632.15c0-99.49 58.32-160.85 154.13-160.85 95.81 0 154.12 61.36 154.12 160.85 0 99.49-58.31 160.85-154.12 160.85-95.81 0-154.13-61.36-154.13-160.85zm217.21 24.42v-48.85c0-45.27-23.81-70.89-63.08-70.89-39.28 0-63.08 25.62-63.08 70.89v48.85c0 45.28 23.8 70.9 63.08 70.9 39.27 0 63.08-25.62 63.08-70.9z"/>
			<path id="&lt;Compound Path&gt;" class="s1" d="m2704.38 478.45h89.86l-144.61 356.85c-17.85 44.68-45.82 69.7-98.19 69.7h-60.7v-68.51h73.79l19.04-52.43-123.77-305.61h94.62l44.63 129.27 27.97 89.37h4.76l26.78-89.37zm-73.8-32.76c39.28 0 52.97-18.47 52.97-41.7v-17.28c0-23.83-13.69-41.7-52.97-41.7-39.27 0-52.96 17.87-52.96 41.7v17.28c0 23.23 13.69 41.7 52.96 41.7z"/>
			<path id="&lt;Compound Path&gt;" class="s1" d="m3013.46 729.85h-4.17c-15.47 36.94-41.65 63.15-91.04 63.15-67.84 0-115.45-49.45-115.45-160.85 0-111.41 47.61-160.85 115.45-160.85 49.39 0 75.57 26.21 91.04 63.15h4.17v-56h88.07v307.4h-88.07zm0-52.42v-90.56c0-32.17-26.18-47.06-57.13-47.06-39.27 0-61.89 25.62-61.89 68.51v47.66c0 42.89 22.62 68.51 61.89 68.51 30.95 0 57.13-14.89 57.13-47.06z"/>
			<path id="&lt;Path&gt;" class="s2" d="m3137.95 832.91v72.09h357.05v-72.09z"/>
		</g>
	</g>
</svg>