<svg xmlns="http://www.w3.org/2000/svg" width="159" height="32" fill="none" viewBox="0 0 159 32">
  <path fill="currentColor" d="M75.411 19.84c.64 0 1.147.123 1.52.368.374.235.667.57.88 1.008h.289v-1.152h2.015v9.888c0 .363-.117.661-.351.896-.224.234-.518.352-.88.352h-5.345v-1.92h4.129c.288 0 .432-.16.432-.48v-1.952h-.288a3.036 3.036 0 0 1-.32.528 1.73 1.73 0 0 1-.48.432c-.192.128-.427.23-.704.304a3.67 3.67 0 0 1-.977.112c-.49 0-.95-.086-1.376-.256a3.322 3.322 0 0 1-1.103-.784 3.948 3.948 0 0 1-.737-1.28c-.17-.501-.256-1.078-.256-1.728v-.288c0-.64.092-1.211.273-1.712a3.82 3.82 0 0 1 .767-1.264 3.34 3.34 0 0 1 1.136-.8 3.56 3.56 0 0 1 1.376-.272Zm38.228 4.768c0 .565.134 1.008.4 1.328.267.309.667.464 1.2.464.608 0 1.051-.192 1.328-.576.288-.394.432-.928.432-1.6v-4.16h2.016v9.888c0 .363-.117.661-.352.896-.224.234-.517.352-.88.352h-4.72v-1.92h3.504c.288 0 .432-.16.432-.48v-1.952h-.288c-.352.917-1.109 1.376-2.272 1.376a3.12 3.12 0 0 1-1.104-.192 2.396 2.396 0 0 1-.896-.592 2.896 2.896 0 0 1-.608-.992c-.139-.405-.208-.88-.208-1.424v-4.96h2.016v4.544ZM46.741 19.84c.683 0 1.27.123 1.76.368.49.235.896.539 1.216.912.32.363.555.768.704 1.216.15.437.224.864.224 1.28v1.072H44.82a1.7 1.7 0 0 0 .16.656c.106.192.245.363.416.512.18.14.384.251.608.336.234.075.48.112.736.112.501 0 .885-.086 1.152-.256.266-.181.458-.395.576-.64l1.728.96c-.096.203-.23.416-.4.64a2.84 2.84 0 0 1-.672.592 3.57 3.57 0 0 1-.992.448c-.384.117-.838.176-1.36.176a4.443 4.443 0 0 1-1.632-.288 3.687 3.687 0 0 1-1.28-.832 3.905 3.905 0 0 1-.832-1.328c-.192-.522-.288-1.115-.288-1.776v-.096c0-.608.101-1.163.304-1.664.213-.501.502-.928.864-1.28a3.844 3.844 0 0 1 1.264-.816 4.067 4.067 0 0 1 1.568-.304Zm9.653 0c.5 0 .933.064 1.296.192.373.118.688.277.944.48.256.192.464.41.624.656.16.235.283.465.368.688l-1.824.736a1.275 1.275 0 0 0-.496-.672c-.235-.17-.54-.256-.912-.256-.342 0-.597.064-.768.192-.17.118-.256.266-.256.448 0 .256.133.443.4.56.266.107.752.197 1.456.272.81.085 1.472.33 1.984.736.512.395.767.95.767 1.664v.096c0 .79-.288 1.418-.864 1.887-.576.47-1.386.705-2.431.705-.619 0-1.147-.08-1.584-.24-.438-.16-.8-.358-1.088-.592a2.919 2.919 0 0 1-.672-.8 3.36 3.36 0 0 1-.304-.864l1.856-.608c.085.341.261.64.528.896.277.256.698.384 1.264.384.501 0 .843-.075 1.024-.224.192-.16.288-.33.288-.512a.534.534 0 0 0-.08-.288.591.591 0 0 0-.257-.256 1.647 1.647 0 0 0-.527-.208 5.756 5.756 0 0 0-.817-.128c-.895-.075-1.61-.304-2.143-.688-.523-.395-.784-.97-.784-1.728v-.096c0-.395.085-.741.256-1.04.17-.298.394-.55.671-.752.278-.214.598-.373.96-.48.363-.107.737-.16 1.12-.16Zm49.016-3.264c.661 0 1.248.096 1.76.288.512.182.939.432 1.28.752.352.32.614.688.784 1.104.182.416.272.854.272 1.312v.576h-2.111v-.384c-.001-.448-.177-.838-.529-1.168-.341-.33-.827-.496-1.456-.496-.533 0-.954.113-1.264.337a1.012 1.012 0 0 0-.463.88c0 .191.036.367.111.527.075.149.203.288.384.416.192.117.437.224.736.32.309.096.699.187 1.168.273 1.173.213 2.07.57 2.689 1.07.618.502.927 1.244.927 2.225v.192c0 .522-.096.997-.288 1.424a2.917 2.917 0 0 1-.8 1.072 3.686 3.686 0 0 1-1.28.688c-.501.16-1.067.24-1.696.24-.736 0-1.386-.102-1.951-.304a4.057 4.057 0 0 1-1.393-.864 3.748 3.748 0 0 1-.848-1.296 4.525 4.525 0 0 1-.288-1.632v-.48h2.113v.384c0 .672.191 1.211.575 1.616.394.395 1.003.592 1.824.592.64 0 1.115-.139 1.424-.416.309-.277.464-.608.464-.992 0-.181-.032-.352-.096-.512a1.04 1.04 0 0 0-.336-.448 2.215 2.215 0 0 0-.656-.368 5.768 5.768 0 0 0-1.056-.272 11.491 11.491 0 0 1-1.552-.368 4.611 4.611 0 0 1-1.232-.624 2.687 2.687 0 0 1-.8-.96c-.192-.384-.288-.853-.288-1.408v-.096c0-.458.091-.88.273-1.264a3.18 3.18 0 0 1 .783-1.024 3.724 3.724 0 0 1 1.217-.672 5.033 5.033 0 0 1 1.599-.24Zm19.562 3.264c.501 0 .933.064 1.296.192.373.118.688.277.944.48.256.192.464.41.624.656.16.235.283.465.368.688l-1.824.736a1.278 1.278 0 0 0-.496-.672c-.235-.17-.539-.256-.912-.256-.342 0-.597.064-.768.192-.17.118-.256.266-.256.448 0 .256.133.443.4.56.266.107.752.197 1.456.272.81.085 1.472.33 1.984.736.512.395.768.95.768 1.664v.096c0 .79-.289 1.418-.865 1.887-.576.47-1.386.705-2.431.705-.619 0-1.147-.08-1.584-.24-.438-.16-.8-.358-1.088-.592a2.92 2.92 0 0 1-.672-.8 3.399 3.399 0 0 1-.304-.864l1.856-.608c.085.341.261.64.528.896.277.256.698.384 1.264.384.501 0 .843-.075 1.024-.224.192-.16.288-.33.288-.512a.535.535 0 0 0-.08-.288.588.588 0 0 0-.257-.256 1.643 1.643 0 0 0-.527-.208 5.754 5.754 0 0 0-.816-.128c-.896-.075-1.611-.304-2.144-.688-.523-.395-.784-.97-.784-1.728v-.096c0-.395.085-.741.256-1.04.17-.298.394-.55.672-.752.277-.214.597-.373.96-.48.362-.107.736-.16 1.12-.16Zm19.738 0c.682 0 1.269.123 1.76.368.49.235.896.539 1.216.912.32.363.554.768.704 1.216.149.437.223.864.223 1.28v1.072h-5.823c.011.234.063.453.159.656.107.192.246.363.416.512.182.14.385.251.609.336.234.075.48.112.736.112.501 0 .885-.086 1.151-.256.267-.181.459-.395.577-.64l1.728.96c-.096.203-.23.416-.4.64-.171.213-.395.41-.672.592-.267.18-.598.33-.992.448-.384.117-.838.176-1.361.176a4.446 4.446 0 0 1-1.632-.288 3.694 3.694 0 0 1-1.279-.832 3.91 3.91 0 0 1-.832-1.328c-.192-.522-.288-1.115-.288-1.776v-.096c0-.608.101-1.163.304-1.664.213-.501.501-.928.864-1.28a3.85 3.85 0 0 1 1.264-.816 4.062 4.062 0 0 1 1.568-.304ZM36.8 16.8c1.387 0 2.416.326 3.088.976.672.64 1.007 1.637 1.008 2.992v3.264c0 1.355-.336 2.357-1.008 3.008-.672.64-1.702.96-3.088.96h-4.064v-2.032h1.056v-7.152h-1.056V16.8H36.8Zm30.686 9.28h2.305V28h-7.009v-1.92h2.689v-4.096h-2.496v-1.92h4.511v6.016Zm19.355-6.24c.384 0 .74.064 1.071.192.341.118.64.304.897.56.256.256.453.582.591.976.15.395.224.864.224 1.408V28h-2.016v-4.512c0-.565-.138-1.008-.416-1.328-.266-.33-.656-.496-1.168-.496-.597 0-1.045.202-1.343.607-.288.395-.433.93-.433 1.601V28h-2.016v-7.936h2.016v1.184h.288c.181-.448.475-.795.88-1.04s.88-.368 1.425-.368Zm48.519.224h2.865v1.92h-2.865V25.6c0 .32.145.48.433.48h2.144V28h-3.36c-.362 0-.662-.117-.896-.352-.224-.234-.336-.533-.336-.896v-4.768h-2.352v-1.92h2.352V16.8h2.015v3.264Zm21.659-.224c.533 0 .96.181 1.28.544.32.352.479.843.479 1.472V28h-2.015v-5.568c0-.224-.059-.39-.176-.496a.557.557 0 0 0-.433-.176.69.69 0 0 0-.511.192c-.118.128-.176.32-.176.576V28h-2.017v-5.568c0-.224-.063-.39-.191-.496a.59.59 0 0 0-.433-.176.65.65 0 0 0-.479.192c-.128.128-.193.32-.193.576V28h-2.015v-7.936h2.015v.768h.288c.064-.288.209-.523.433-.704.235-.192.538-.288.911-.288.352 0 .651.096.897.288.245.181.41.416.496.704h.288c.085-.288.261-.523.527-.704.277-.192.619-.288 1.025-.288Zm-81.032 1.92c-.629 0-1.141.197-1.536.592-.384.383-.575.912-.575 1.584v.192c0 .672.191 1.205.575 1.6.395.383.907.576 1.536.576.63 0 1.137-.197 1.52-.592.395-.405.593-.933.593-1.584v-.192c0-.65-.198-1.173-.592-1.568-.384-.405-.891-.608-1.52-.608ZM13.333 10.8l6.2-6.234 1.9 1.9-6.233 6.201H24v2.666h-8.8l6.234 6.2-1.9 1.9-6.201-6.233V26h-2.666v-8.8l-6.2 6.234-1.9-1.9L8.8 15.332H0v-2.666h8.8l-6.234-6.2 1.9-1.9 6.201 6.233V2h2.666v8.8Zm22.571 15.184h.896c.736 0 1.248-.171 1.536-.512.299-.352.448-.896.448-1.632v-3.072c0-.64-.15-1.125-.448-1.456-.288-.33-.8-.496-1.536-.496h-.896v7.168Zm10.82-4.32c-.511 0-.927.134-1.247.4-.32.256-.528.555-.624.896h3.744c-.064-.373-.267-.683-.608-.928-.33-.245-.752-.368-1.264-.368Zm97.969 0c-.512 0-.928.134-1.248.4-.319.256-.528.555-.624.896h3.744c-.064-.373-.266-.683-.607-.928-.331-.245-.753-.368-1.265-.368Zm-78.23-5.472c.202 0 .395.043.576.128.192.075.357.181.495.32.139.128.246.288.32.48a1.483 1.483 0 0 1 0 1.2c-.074.181-.181.341-.32.48a1.803 1.803 0 0 1-.495.32 1.5 1.5 0 0 1-.576.112c-.213 0-.411-.037-.593-.112a1.887 1.887 0 0 1-.48-.32 1.692 1.692 0 0 1-.335-.48 1.664 1.664 0 0 1 0-1.2 1.44 1.44 0 0 1 .336-.48c.138-.139.298-.245.48-.32.18-.085.379-.128.592-.128ZM36.832.576c.661 0 1.248.096 1.76.288.512.182.939.432 1.28.752.352.32.614.688.784 1.104.182.416.272.854.272 1.312v.576h-2.112v-.384c0-.448-.176-.838-.528-1.168-.341-.33-.827-.496-1.456-.496-.533 0-.954.112-1.264.336-.309.214-.463.507-.463.88 0 .192.036.368.11.528.075.149.203.288.385.416.192.117.437.224.736.32.31.096.699.187 1.168.272 1.173.214 2.07.57 2.688 1.072.619.501.928 1.243.928 2.224V8.8c0 .522-.096.997-.288 1.424a2.921 2.921 0 0 1-.8 1.072 3.684 3.684 0 0 1-1.28.688c-.501.16-1.067.24-1.696.24-.736 0-1.386-.101-1.951-.304a4.061 4.061 0 0 1-1.393-.864 3.743 3.743 0 0 1-.848-1.296 4.525 4.525 0 0 1-.288-1.632v-.48h2.112v.384c0 .672.192 1.211.576 1.616.394.395 1.003.592 1.824.592.64 0 1.114-.139 1.424-.416.31-.277.464-.608.464-.992 0-.181-.032-.352-.096-.512a1.04 1.04 0 0 0-.336-.448 2.212 2.212 0 0 0-.656-.368 5.775 5.775 0 0 0-1.056-.272 11.449 11.449 0 0 1-1.552-.368c-.47-.16-.88-.368-1.232-.624a2.684 2.684 0 0 1-.8-.96c-.192-.384-.288-.853-.288-1.408v-.096c0-.458.091-.88.272-1.264.192-.395.453-.736.784-1.024a3.734 3.734 0 0 1 1.216-.672c.48-.16 1.014-.24 1.6-.24Zm18.81 3.264c.565 0 1.019.096 1.36.288.352.192.63.491.832.896h.288v-.96h2.016V9.6c0 .32.144.48.431.48h.305V12h-1.376c-.363 0-.662-.107-.896-.32-.224-.214-.336-.491-.336-.832h-.288c-.214.5-.512.859-.896 1.072-.384.203-.833.304-1.345.304-.48 0-.933-.09-1.36-.272a3.222 3.222 0 0 1-1.104-.8 4.013 4.013 0 0 1-.767-1.28c-.181-.501-.273-1.072-.273-1.712v-.256c0-.629.092-1.195.273-1.696.181-.501.427-.928.736-1.28.31-.352.666-.619 1.072-.8a3.132 3.132 0 0 1 1.328-.288Zm20.345 0c.502 0 .934.064 1.296.192.373.118.689.277.945.48.256.192.464.41.624.656.16.235.282.464.368.688l-1.825.736a1.275 1.275 0 0 0-.496-.672c-.234-.17-.538-.256-.912-.256-.341 0-.597.064-.767.192-.17.118-.256.266-.256.448 0 .256.133.443.4.56.266.107.751.197 1.455.272.811.085 1.473.33 1.985.736.512.395.767.95.767 1.664v.096c0 .79-.288 1.418-.864 1.888-.576.469-1.386.704-2.432.704-.618 0-1.146-.08-1.584-.24-.437-.16-.8-.358-1.088-.592a2.92 2.92 0 0 1-.671-.8 3.362 3.362 0 0 1-.304-.864l1.855-.608c.086.341.262.64.529.896.277.256.698.384 1.263.384.502 0 .843-.075 1.025-.224.192-.16.288-.33.288-.512a.533.533 0 0 0-.08-.288.59.59 0 0 0-.257-.256 1.647 1.647 0 0 0-.527-.208 5.747 5.747 0 0 0-.817-.128c-.896-.075-1.61-.304-2.143-.688-.523-.395-.784-.97-.784-1.728v-.097c0-.394.085-.74.255-1.039.171-.298.395-.55.672-.753a2.9 2.9 0 0 1 .96-.479c.363-.107.736-.16 1.12-.16Zm19.69 0c.544 0 1.062.091 1.552.272.502.182.945.448 1.329.8.383.352.687.784.91 1.296.225.501.338 1.077.338 1.728v.192c0 .661-.113 1.248-.337 1.76a3.837 3.837 0 0 1-.911 1.28 4.053 4.053 0 0 1-1.329.784 4.443 4.443 0 0 1-1.552.272c-.544 0-1.067-.09-1.568-.272a4.092 4.092 0 0 1-1.312-.784 3.837 3.837 0 0 1-.912-1.28c-.224-.512-.336-1.099-.336-1.76v-.192c0-.65.112-1.227.336-1.728.224-.512.528-.944.912-1.296a3.95 3.95 0 0 1 1.312-.8 4.574 4.574 0 0 1 1.568-.272Zm-48.489.224h2.865v1.92h-2.864V9.6c0 .32.144.48.432.48h2.144V12h-3.36c-.362 0-.662-.117-.896-.352-.224-.234-.336-.533-.336-.896V5.984H42.82v-1.92h2.352V.8h2.015v3.264ZM67.95 3.84c.79 0 1.424.25 1.904.752.48.49.72 1.242.72 2.256V7.2l-2.08.192v-.224c0-.437-.112-.784-.336-1.04-.224-.267-.56-.4-1.008-.4-.448 0-.8.155-1.055.464-.256.31-.384.752-.384 1.328v2.56h1.823V12h-5.472v-1.92h1.632V5.984h-1.44v-1.92h3.36v1.152h.288c.15-.437.4-.773.752-1.008.363-.245.795-.368 1.296-.368Zm16.33 1.504h.288c.203-.48.502-.848.897-1.104.394-.266.88-.4 1.455-.4.395 0 .758.064 1.089.192.33.128.618.32.863.576.245.256.438.586.576.992.139.394.208.864.208 1.408V12h-2.015V7.488c0-.565-.14-1.008-.416-1.328-.267-.33-.656-.496-1.168-.496-.598 0-1.045.203-1.344.608-.288.395-.433.928-.433 1.6V12h-2.015V.8h2.015v4.544Zm21.69-1.28h2.864v1.92h-2.864V9.6c0 .32.144.48.432.48h2.144V12h-3.359c-.363 0-.662-.117-.897-.352-.224-.234-.336-.533-.336-.896V5.984h-2.351v-1.92h2.351V.8h2.016v3.264ZM56.185 5.76c-.586 0-1.056.197-1.408.592-.352.383-.527.912-.527 1.584v.192c0 .672.176 1.205.527 1.6.352.383.822.576 1.408.576.587 0 1.057-.193 1.409-.576.352-.395.528-.928.528-1.6v-.192c0-.672-.176-1.2-.528-1.584-.352-.395-.822-.592-1.409-.592Zm39.492 0c-.288 0-.56.048-.816.144-.256.096-.48.235-.672.416a2.04 2.04 0 0 0-.463.672 2.27 2.27 0 0 0-.16.88v.32c0 .33.053.63.16.896.117.256.272.475.463.656.192.181.416.32.672.416.256.096.528.144.816.144.288 0 .56-.048.816-.144a1.98 1.98 0 0 0 .672-.416c.192-.181.342-.4.448-.656.118-.267.176-.565.176-.896v-.32c0-.33-.058-.624-.176-.88a1.86 1.86 0 0 0-.448-.672 1.98 1.98 0 0 0-.672-.416 2.307 2.307 0 0 0-.816-.144Z"/>
</svg>